<?xml version="1.0" encoding="UTF-8"?>
<svg version="1.1" xmlns="http://www.w3.org/2000/svg" width="500" height="500">
<path d="M0 0 C165 0 330 0 500 0 C500 165 500 330 500 500 C335 500 170 500 0 500 C0 335 0 170 0 0 Z " fill="#FEFEFE" transform="translate(0,0)"/>
<path d="M0 0 C28.38 0 56.76 0 86 0 C85.67 1.65 85.34 3.3 85 5 C84.05898438 5.04898438 83.11796875 5.09796875 82.1484375 5.1484375 C80.28058594 5.26058594 80.28058594 5.26058594 78.375 5.375 C76.53035156 5.47941406 76.53035156 5.47941406 74.6484375 5.5859375 C71.16346145 5.9814487 68.26950399 6.76261849 65 8 C63.61350981 13.88962072 64.57051465 17.33090068 67.42578125 22.46484375 C67.97411369 23.50245094 67.97411369 23.50245094 68.53352356 24.5610199 C69.29795731 26.00394829 70.07010511 27.44281468 70.84967041 28.87762451 C71.93635834 30.88258018 72.99753792 32.89841434 74.04833984 34.92236328 C76.07129287 38.81499515 78.12586136 42.69024557 80.1875 46.5625 C80.55106598 47.2467807 80.91463196 47.9310614 81.28921509 48.63607788 C87.08082491 59.52869693 93.03556222 70.31432804 99.16796875 81.01953125 C101.25239909 84.67295055 103.3212573 88.33440331 105.36328125 92.01171875 C105.86770752 92.91752686 106.37213379 93.82333496 106.8918457 94.7565918 C108 97 108 97 108 99 C111.71522903 95.68914964 114.01731101 91.84688862 116.4375 87.5625 C120.26266809 80.92674001 124.20008594 74.37603291 128.25 67.875 C135.24409667 56.63014043 142.13922592 45.32662979 149 34 C149.48082031 33.2064209 149.96164062 32.4128418 150.45703125 31.59521484 C151.72361967 29.50233261 152.98760227 27.40791205 154.25 25.3125 C154.60868164 24.71904785 154.96736328 24.1255957 155.33691406 23.51416016 C159.50692123 17.20039696 159.50692123 17.20039696 160 10 C155.54536239 6.29922414 151.77485842 5.37044272 146.125 5.25 C145.43664062 5.22035156 144.74828125 5.19070312 144.0390625 5.16015625 C142.35998374 5.09019464 140.67999188 5.04274789 139 5 C139 3.35 139 1.7 139 0 C157.81 0 176.62 0 196 0 C195.67 1.65 195.34 3.3 195 5 C194.16597656 5.02578125 193.33195313 5.0515625 192.47265625 5.078125 C181.62266007 5.62497475 173.59527786 7.8296152 166 16 C163.0448053 20.21105975 160.46327735 24.62200159 157.875 29.0625 C157.12535134 30.32660178 156.37427471 31.58985775 155.62182617 32.85229492 C154.11349705 35.38401392 152.61008423 37.91854737 151.10986328 40.45507812 C148.24587967 45.28343068 145.28457613 50.05014479 142.3125 54.8125 C138.99842744 60.1427758 135.69986497 65.48163392 132.4375 70.84375 C131.83719971 71.82939941 131.23689941 72.81504883 130.6184082 73.83056641 C129.42622087 75.79911799 128.24227436 77.77268692 127.06713867 79.75146484 C124.4340084 84.15992058 121.77889529 88.39784222 118.61328125 92.4453125 C115.72111898 96.22339498 113.52290826 99.45507066 112 104 C113.07156361 109.37456123 115.51735446 113.24290489 118.54248047 117.75097656 C121.19651439 121.84627982 123.39369594 126.19635766 125.6875 130.5 C126.71987725 132.38693977 127.75508857 134.27233142 128.79296875 136.15625 C132.05448086 142.09026531 135.27968671 148.04355145 138.5 154 C143.13763539 162.57111636 147.78726262 171.13551328 152.46948242 179.68237305 C155.14367933 184.56969843 157.78677088 189.47139351 160.39453125 194.39453125 C161.25014648 196.00038086 161.25014648 196.00038086 162.12304688 197.63867188 C163.21340449 199.68703156 164.29723068 201.73888767 165.37304688 203.79492188 C171.03735131 214.4036769 177.98818949 225.50255326 189.93359375 229.4765625 C193.2763375 230.32330666 196.56670702 230.69345598 200 231 C200 232.65 200 234.3 200 236 C172.94 236 145.88 236 118 236 C118 234.35 118 232.7 118 231 C118.88042969 230.89042969 119.76085937 230.78085937 120.66796875 230.66796875 C121.82941406 230.50941406 122.99085938 230.35085938 124.1875 230.1875 C125.33605469 230.03667969 126.48460937 229.88585937 127.66796875 229.73046875 C132.29314613 228.74722787 132.29314613 228.74722787 136 226 C137.53751565 217.54366394 133.75257038 211.74729501 129.625 204.5625 C128.97407993 203.39803062 128.3249287 202.23257084 127.67749023 201.06616211 C125.80363815 197.70014094 123.90096484 194.35078264 122 191 C121.12071231 189.41832274 120.24400081 187.83520757 119.37109375 186.25 C117.82799933 183.44799772 116.27663005 180.65100443 114.71484375 177.859375 C112.53245589 173.95750454 110.36041192 170.04994547 108.19140625 166.140625 C107.85679886 165.53766098 107.52219147 164.93469696 107.17744446 164.3134613 C105.83127524 161.88762461 104.48513629 159.46177125 103.13943481 157.03567505 C102.2001504 155.34255903 101.26023968 153.64979052 100.3203125 151.95703125 C99.74442383 150.91885254 99.16853516 149.88067383 98.57519531 148.81103516 C97.2607891 146.46539456 95.9172345 144.14198416 94.5546875 141.82421875 C93 139 93 139 93 137 C90.18421544 139.5284596 88.42317351 142.37591442 86.48046875 145.609375 C86.14543335 146.16409485 85.81039795 146.7188147 85.46520996 147.29034424 C84.3686419 149.10785445 83.27810737 150.92890798 82.1875 152.75 C81.42273928 154.01980683 80.65751599 155.28933517 79.8918457 156.55859375 C78.33639525 159.13767799 76.78282407 161.7178799 75.23046875 164.29882812 C72.07167901 169.5460795 68.87854622 174.77232743 65.6875 180 C61.18943636 187.38446636 56.70747003 194.77845284 52.25 202.1875 C51.49722778 203.43563477 51.49722778 203.43563477 50.72924805 204.70898438 C50.26687744 205.47919922 49.80450684 206.24941406 49.328125 207.04296875 C48.9249707 207.71352295 48.52181641 208.38407715 48.10644531 209.07495117 C45.15749209 214.2056873 44.12374537 218.0524217 45 224 C47.57328893 227.8599334 50.57022761 228.95296289 55 230 C58.66076567 230.43929188 62.32169947 230.75128929 66 231 C66 232.65 66 234.3 66 236 C44.22 236 22.44 236 0 236 C0 234.35 0 232.7 0 231 C1.11117187 230.91363281 2.22234375 230.82726562 3.3671875 230.73828125 C17.64126731 229.46458424 27.00164484 225.73606739 37 215 C44.70027464 205.60390631 50.61719837 195.04803701 56.71484375 184.578125 C59.68227719 179.50204573 62.7736769 174.51799379 65.9375 169.5625 C71.22939323 161.27097639 76.3619837 152.88878248 81.45678711 144.47485352 C82.30188843 143.07964478 82.30188843 143.07964478 83.1640625 141.65625 C83.66373535 140.82931641 84.1634082 140.00238281 84.67822266 139.15039062 C85.74799378 137.40998722 86.86680652 135.69979022 88 134 C87.68197528 129.60756623 86.39429473 126.36969236 84.296875 122.53515625 C83.73564941 121.50036133 83.17442383 120.46556641 82.59619141 119.39941406 C81.98694824 118.29823242 81.37770508 117.19705078 80.75 116.0625 C80.11884277 114.90588867 79.48768555 113.74927734 78.83740234 112.55761719 C74.32901036 104.30983451 69.69653564 96.13274807 65.03808594 87.96899414 C60.54409315 80.05586463 56.25863641 72.0411221 52 64 C45.63777047 51.99046228 39.09472331 40.10103108 32.32324219 28.31591797 C31.14973653 26.26206655 29.99567043 24.19922305 28.8515625 22.12890625 C24.83212419 14.95886017 21.20569987 8.66130807 13 6 C10.73703593 5.71878758 8.46369338 5.51295111 6.1875 5.375 C5.02605469 5.30023438 3.86460937 5.22546875 2.66796875 5.1484375 C1.78753906 5.09945312 0.90710938 5.05046875 0 5 C0 3.35 0 1.7 0 0 Z " fill="#050505" transform="translate(252,134)"/>
<path d="M0 0 C1.53012492 0.90946166 3.03351713 1.86612401 4.5 2.875 C5.46679688 3.52662109 5.46679688 3.52662109 6.453125 4.19140625 C12.93643945 9.13845706 17.72271975 16.79823784 19.24609375 24.83203125 C19.32988281 25.50621094 19.41367188 26.18039062 19.5 26.875 C19.59410156 27.62136719 19.68820313 28.36773437 19.78515625 29.13671875 C20.35994174 38.28907227 16.98750781 47.32453179 11.1875 54.375 C4.38555061 61.38396525 -3.4223994 65.12350768 -13.25 65.3125 C-22.74681483 65.17225168 -29.79399561 61.4250508 -36.5 54.875 C-43.99736171 46.34942868 -45.30710131 36.99726723 -44.91015625 25.9765625 C-44.50852127 20.45943243 -42.7092329 16.35318979 -39.5 11.875 C-39.0153125 11.15957031 -38.530625 10.44414062 -38.03125 9.70703125 C-29.13448102 -1.91546352 -13.43653588 -6.26902206 0 0 Z " fill="#FBFBFB" transform="translate(197.5,246.125)"/>
<path d="M0 0 C8.25 0 16.5 0 25 0 C25 0.33 25 0.66 25 1 C23.02 1.33 21.04 1.66 19 2 C19.58521907 5.48505907 20.48142169 8.3485147 22.04125977 11.51489258 C22.46162003 12.37540726 22.88198029 13.23592194 23.31507874 14.12251282 C23.76926682 15.0372789 24.2234549 15.95204498 24.69140625 16.89453125 C25.15610825 17.84188644 25.62081024 18.78924164 26.09959412 19.76530457 C27.58177668 22.78375372 29.07201581 25.79814286 30.5625 28.8125 C31.57019551 30.86106551 32.57736323 32.90989073 33.58398438 34.95898438 C36.04987835 39.97568343 38.52239497 44.98907527 41 50 C43.12512513 46.8123123 44.34485338 43.8355205 45.6875 40.25 C46.14511719 39.05890625 46.60273438 37.8678125 47.07421875 36.640625 C49.17971963 28.36076501 45.4514741 22.01835934 41.8125 14.75 C41.10770508 13.26113281 41.10770508 13.26113281 40.38867188 11.7421875 C37.60871137 5.798939 37.60871137 5.798939 32.63671875 1.828125 C31.76660156 1.55484375 30.89648438 1.2815625 30 1 C30 0.67 30 0.34 30 0 C42.21 0 54.42 0 67 0 C65 1 63 2 61 3 C60.01593574 5.19164754 59.13559869 7.43046435 58.3125 9.6875 C57.85488281 10.90824219 57.39726562 12.12898438 56.92578125 13.38671875 C55.35800288 19.50568497 57.11350496 23.72388146 59.94140625 29.203125 C60.52470703 30.3478125 61.10800781 31.4925 61.70898438 32.671875 C62.32627054 33.86486931 62.94411547 35.05757466 63.5625 36.25 C64.77726112 38.60681992 65.98536938 40.96680365 67.19140625 43.328125 C67.72967041 44.3687207 68.26793457 45.40931641 68.82250977 46.48144531 C70 49 70 49 70 51 C70.66 51 71.32 51 72 51 C72.20367187 49.86949219 72.40734375 48.73898437 72.6171875 47.57421875 C73.66098596 42.87160294 75.18740254 38.41677233 76.8203125 33.89453125 C77.08463074 33.16241425 77.34894897 32.43029724 77.62127686 31.67599487 C78.73413646 28.6093573 79.85479674 25.54567816 80.98291016 22.48461914 C81.81199876 20.22834438 82.62925673 17.96804637 83.4453125 15.70703125 C83.70152374 15.02252396 83.95773499 14.33801666 84.22171021 13.63276672 C85.66425018 9.61475073 86.27035066 6.26401696 86 2 C84.68 1.34 83.36 0.68 82 0 C86.95 0 91.9 0 97 0 C97 0.33 97 0.66 97 1 C96.0925 1.144375 95.185 1.28875 94.25 1.4375 C87.85833274 4.51041695 86.25492624 13.95696458 83.9765625 20.41015625 C82.85245254 23.62522018 81.73799926 26.84357551 80.625 30.0625 C79.51552243 33.2625928 78.40354623 36.46180348 77.2890625 39.66015625 C77.01821838 40.43775299 76.74737427 41.21534973 76.46832275 42.01651001 C73.77008493 49.72479851 70.9069735 57.36837283 68 65 C65 64 65 64 63.39013672 61.24023438 C62.80961953 60.02965678 62.24016536 58.81373479 61.6796875 57.59375 C61.37555939 56.95385132 61.07143127 56.31395264 60.75808716 55.65466309 C59.78734456 53.60753283 58.83078687 51.55414969 57.875 49.5 C56.90931544 47.4472607 55.94079517 45.39589559 54.9704895 43.34533691 C54.36730219 42.06816934 53.76734246 40.78947167 53.17086792 39.50915527 C51.90212459 36.54779329 51.90212459 36.54779329 50 34 C44.555 49.345 44.555 49.345 39 65 C38.01 65 37.02 65 36 65 C33.9161424 60.68775319 31.83289318 56.37521271 29.75 52.0625 C29.43653625 51.41350739 29.12307251 50.76451477 28.80010986 50.09585571 C23.81830267 39.78034346 18.85262182 29.45725873 13.90917969 19.12329102 C13.01535169 17.25736995 12.11813931 15.39306452 11.21679688 13.53076172 C10.42715859 11.88842815 9.65151508 10.23926419 8.89257812 8.58251953 C6.86745936 4.07414518 6.86745936 4.07414518 2.75 1.5 C1.8425 1.335 0.935 1.17 0 1 C0 0.67 0 0.34 0 0 Z " fill="#0B0B0B" transform="translate(221,245)"/>
<path d="M0 0 C1.53012492 0.90946166 3.03351713 1.86612401 4.5 2.875 C5.46679688 3.52662109 5.46679688 3.52662109 6.453125 4.19140625 C12.93643945 9.13845706 17.72271975 16.79823784 19.24609375 24.83203125 C19.32988281 25.50621094 19.41367188 26.18039062 19.5 26.875 C19.59410156 27.62136719 19.68820313 28.36773437 19.78515625 29.13671875 C20.35994174 38.28907227 16.98750781 47.32453179 11.1875 54.375 C4.38555061 61.38396525 -3.4223994 65.12350768 -13.25 65.3125 C-22.74681483 65.17225168 -29.79399561 61.4250508 -36.5 54.875 C-43.99736171 46.34942868 -45.30710131 36.99726723 -44.91015625 25.9765625 C-44.50852127 20.45943243 -42.7092329 16.35318979 -39.5 11.875 C-39.0153125 11.15957031 -38.530625 10.44414062 -38.03125 9.70703125 C-29.13448102 -1.91546352 -13.43653588 -6.26902206 0 0 Z M-27.5 4.875 C-29.22380947 7.31706342 -30.35614953 9.19012876 -31.5 11.875 C-31.7990625 12.55949219 -32.098125 13.24398438 -32.40625 13.94921875 C-36.86209773 26.09965539 -35.2153423 38.70415725 -31.08203125 50.60546875 C-28.46758305 56.00866169 -25.1407128 60.39510391 -19.5 62.875 C-13.46024797 63.65910816 -7.58709385 63.75377636 -1.9375 61.375 C6.95290503 52.25663586 8.9740031 41.84165247 8.85131836 29.4909668 C8.55153925 19.51887221 5.98239243 11.62534205 -0.5 3.875 C-5.71122004 -0.52355414 -10.64253465 -0.53110922 -17.26171875 -0.46484375 C-21.87141593 0.01892423 -24.46077295 1.42411972 -27.5 4.875 Z " fill="#111111" transform="translate(197.5,246.125)"/>
<path d="M0 0 C14.52 0 29.04 0 44 0 C48 11 48 11 47 14 C46.64808594 13.38511719 46.29617187 12.77023437 45.93359375 12.13671875 C45.43988281 11.32847656 44.94617188 10.52023438 44.4375 9.6875 C43.96183594 8.88699219 43.48617187 8.08648437 42.99609375 7.26171875 C39.23860893 3.00421637 34.83505345 1.92286155 29.37890625 1.48828125 C27.77409632 1.41379487 26.16838926 1.3581378 24.5625 1.3125 C20.3240625 1.1578125 20.3240625 1.1578125 16 1 C16 10.57 16 20.14 16 30 C18.413125 29.855625 20.82625 29.71125 23.3125 29.5625 C24.06829346 29.51939697 24.82408691 29.47629395 25.6027832 29.43188477 C28.60594873 29.24164809 31.13201045 28.95599652 34 28 C36.32114391 24.64723657 36.54125264 20.97581042 37 17 C37.33 17 37.66 17 38 17 C38 26.57 38 36.14 38 46 C37.67 46 37.34 46 37 46 C36.91363281 45.24074219 36.82726562 44.48148437 36.73828125 43.69921875 C36.59777344 42.70535156 36.45726562 41.71148437 36.3125 40.6875 C36.12107422 39.20830078 36.12107422 39.20830078 35.92578125 37.69921875 C35.0925305 34.32543225 35.0925305 34.32543225 30 32 C23.07 31.505 23.07 31.505 16 31 C16.495 46.345 16.495 46.345 17 62 C18.65 62.66 20.3 63.32 22 64 C22 64.33 22 64.66 22 65 C14.74 65 7.48 65 0 65 C1.32 64.34 2.64 63.68 4 63 C5.26650985 61.95689295 5.26650985 61.95689295 5.12025452 59.63987732 C5.11803391 58.59396927 5.11581329 57.54806122 5.11352539 56.47045898 C5.11344986 55.28931015 5.11337433 54.10816132 5.11329651 52.89122009 C5.10813522 51.6058284 5.10297394 50.32043671 5.09765625 48.99609375 C5.09553383 47.0338662 5.09553383 47.0338662 5.09336853 45.03199768 C5.0895441 41.54837141 5.07971446 38.06478661 5.06866455 34.58117676 C5.05844882 31.02873292 5.05387056 27.47628241 5.04882812 23.92382812 C5.03809212 16.94920168 5.0210166 9.97460283 5 3 C2.525 2.01 2.525 2.01 0 1 C0 0.67 0 0.34 0 0 Z " fill="#070707" transform="translate(38,245)"/>
<path d="M0 0 C7.26 0 14.52 0 22 0 C20.02 0.99 20.02 0.99 18 2 C16.27184518 3.72815482 16.86351909 6.05096239 16.85473633 8.40600586 C16.84835648 9.56067856 16.84197662 10.71535126 16.83540344 11.90501404 C16.83429062 13.16225784 16.8331778 14.41950165 16.83203125 15.71484375 C16.82870285 16.99605606 16.82537445 18.27726837 16.82194519 19.5973053 C16.81594808 22.3134953 16.81410587 25.02965345 16.81469727 27.74584961 C16.8147989 31.23090592 16.80114784 34.71575855 16.78392506 38.20076656 C16.77014934 41.51796233 16.77071676 44.8351197 16.76953125 48.15234375 C16.76234573 49.40756332 16.75516022 50.6627829 16.74775696 51.95603943 C16.75083359 53.11386429 16.75391022 54.27168915 16.75708008 55.46459961 C16.75565506 56.48750595 16.75423004 57.51041229 16.75276184 58.5643158 C16.75908291 61.18047139 16.75908291 61.18047139 19 63 C27.01018104 63.84214617 35.43022083 64.24953646 42 59 C48.2479132 53.76849373 50.44329528 46.52304707 53 39 C53.66 39 54.32 39 55 39 C53.5946646 47.89429378 51.33863019 56.23013677 49 65 C32.83 65 16.66 65 0 65 C4 63 4 63 6 63 C5.67 43.2 5.34 23.4 5 3 C2.525 2.01 2.525 2.01 0 1 C0 0.67 0 0.34 0 0 Z " fill="#080808" transform="translate(91,245)"/>
<path d="M0 0 C8.25 0 16.5 0 25 0 C25 0.33 25 0.66 25 1 C23.02 1.33 21.04 1.66 19 2 C19.58527243 5.46846128 20.47224711 8.33955741 22.00952148 11.49902344 C22.42342636 12.35631042 22.83733124 13.21359741 23.26377869 14.09686279 C23.71169266 15.00849182 24.15960663 15.92012085 24.62109375 16.859375 C25.0810524 17.80435852 25.54101105 18.74934204 26.01490784 19.72296143 C26.98631356 21.71466067 27.96066032 23.70492781 28.93774414 25.69384766 C30.43683876 28.74865255 31.92307647 31.80947825 33.40820312 34.87109375 C34.35340091 36.80506194 35.29933892 38.73866857 36.24609375 40.671875 C36.91492836 42.05146393 36.91492836 42.05146393 37.59727478 43.45892334 C38.01433182 44.30360168 38.43138885 45.14828003 38.86108398 46.01855469 C39.2266893 46.76514343 39.59229462 47.51173218 39.96897888 48.28094482 C40.89286669 50.17019341 40.89286669 50.17019341 43 51 C42.52188823 52.77111844 42.0424722 54.54188483 41.5625 56.3125 C41.29566406 57.29863281 41.02882813 58.28476562 40.75390625 59.30078125 C40.21920575 61.21517526 39.62855462 63.11433615 39 65 C38.01 65 37.02 65 36 65 C33.9161424 60.68775319 31.83289318 56.37521271 29.75 52.0625 C29.43653625 51.41350739 29.12307251 50.76451477 28.80010986 50.09585571 C23.81830267 39.78034346 18.85262182 29.45725873 13.90917969 19.12329102 C13.01535169 17.25736995 12.11813931 15.39306452 11.21679688 13.53076172 C10.42715859 11.88842815 9.65151508 10.23926419 8.89257812 8.58251953 C6.86745936 4.07414518 6.86745936 4.07414518 2.75 1.5 C1.8425 1.335 0.935 1.17 0 1 C0 0.67 0 0.34 0 0 Z " fill="#070707" transform="translate(221,245)"/>
<path d="M0 0 C-1.0828125 0.8353125 -1.0828125 0.8353125 -2.1875 1.6875 C-9.3704605 7.59348974 -13.2499985 13.78772794 -15 23 C-15.93013761 35.18480272 -15.30057 47.40180389 -8.0625 57.77734375 C-6.1750399 59.81136798 -4.68856559 61.04632171 -2.25 62.3125 C-1.1775 62.869375 -0.105 63.42625 1 64 C1 64.33 1 64.66 1 65 C-4.47743243 65.86485775 -7.9922082 63.83191782 -12.46484375 60.96484375 C-19.25828814 55.69966266 -24.72229282 48.62452346 -26 40 C-26.98233563 30.09989871 -27.02457667 21.35814687 -21 13 C-20.48050781 12.27296875 -19.96101562 11.5459375 -19.42578125 10.796875 C-14.46646431 4.55437816 -8.26984545 -0.46427203 0 0 Z " fill="#080808" transform="translate(179,245)"/>
<path d="M0 0 C0.66 0 1.32 0 2 0 C0.59925635 8.86523283 -1.62081935 17.35564365 -4 26 C-8.95 26 -13.9 26 -19 26 C-19 25.34 -19 24.68 -19 24 C-17.80375 23.484375 -16.6075 22.96875 -15.375 22.4375 C-5.96431243 17.62427355 -3.27780454 9.64486733 0 0 Z " fill="#090909" transform="translate(144,284)"/>
<path d="M0 0 C4.95 0 9.9 0 15 0 C15 0.33 15 0.66 15 1 C14.0925 1.144375 13.185 1.28875 12.25 1.4375 C8.64529532 3.1705311 8.43609802 3.56011678 6.99462891 7.0456543 C6.65747864 7.85674652 6.32032837 8.66783875 5.97296143 9.50350952 C4.51144126 13.25357717 3.14206109 17.02522488 1.8359375 20.83203125 C1.55779205 21.63106369 1.27964661 22.43009613 0.99307251 23.25334167 C0.11673067 25.77181164 -0.75460131 28.29197047 -1.625 30.8125 C-2.50296004 33.35072971 -3.38208268 35.88853145 -4.26449585 38.42521667 C-4.81034207 39.99468625 -5.3536188 41.56505253 -5.89395142 43.13642883 C-7.07576162 46.53744914 -8.26250877 49.83946512 -10 53 C-10.66 52.34 -11.32 51.68 -12 51 C-11.34 51 -10.68 51 -10 51 C-9.79632813 49.86949219 -9.59265625 48.73898437 -9.3828125 47.57421875 C-8.33901404 42.87160294 -6.81259746 38.41677233 -5.1796875 33.89453125 C-4.91536926 33.16241425 -4.65105103 32.43029724 -4.37872314 31.67599487 C-3.26586354 28.6093573 -2.14520326 25.54567816 -1.01708984 22.48461914 C-0.18800124 20.22834438 0.62925673 17.96804637 1.4453125 15.70703125 C1.70152374 15.02252396 1.95773499 14.33801666 2.22171021 13.63276672 C3.66425018 9.61475073 4.27035066 6.26401696 4 2 C2.68 1.34 1.36 0.68 0 0 Z " fill="#505050" transform="translate(303,245)"/>
<path d="M0 0 C6.15234375 -0.09765625 6.15234375 -0.09765625 8 0 C8.33 0.33 8.66 0.66 9 1 C8.63176357 6.43148733 7.75532834 10.20812462 5 15 C2.46673628 11.86357825 0.52655184 8.74005201 -1 5 C-0.6875 2.125 -0.6875 2.125 0 0 Z " fill="#F5F5F5" transform="translate(270,246)"/>
<path d="M0 0 C0.33 0 0.66 0 1 0 C1 9.57 1 19.14 1 29 C0.67 29 0.34 29 0 29 C-0.08636719 28.24074219 -0.17273438 27.48148437 -0.26171875 26.69921875 C-0.40222656 25.70535156 -0.54273437 24.71148437 -0.6875 23.6875 C-0.81511719 22.70136719 -0.94273438 21.71523438 -1.07421875 20.69921875 C-1.78917257 17.86831643 -1.78917257 17.86831643 -4.125 16.1875 C-7.61236007 14.74706867 -10.54904514 14.48836238 -14.3125 14.3125 C-15.56675781 14.24675781 -16.82101563 14.18101562 -18.11328125 14.11328125 C-19.06589844 14.07589844 -20.01851562 14.03851563 -21 14 C-21 13.67 -21 13.34 -21 13 C-19.95199219 12.93941406 -18.90398438 12.87882812 -17.82421875 12.81640625 C-16.44529952 12.73198262 -15.06639395 12.64733553 -13.6875 12.5625 C-12.99720703 12.52318359 -12.30691406 12.48386719 -11.59570312 12.44335938 C-8.52838465 12.25072585 -5.93031848 11.97677283 -3 11 C-0.67885609 7.64723657 -0.45874736 3.97581042 0 0 Z " fill="#131313" transform="translate(75,262)"/>
<path d="M0 0 C2.01822917 0.06510417 4.03645833 0.13020833 6.0546875 0.1953125 C6.7534568 1.96172933 7.43835333 3.73363914 8.1171875 5.5078125 C8.50003906 6.49394531 8.88289063 7.48007813 9.27734375 8.49609375 C10.0546875 11.1953125 10.0546875 11.1953125 9.0546875 14.1953125 C8.70277344 13.58042969 8.35085937 12.96554687 7.98828125 12.33203125 C4.60304043 6.79013571 2.32115597 4.07525304 -3.9453125 2.1953125 C-1.9453125 0.1953125 -1.9453125 0.1953125 0 0 Z " fill="#1B1B1B" transform="translate(75.9453125,244.8046875)"/>
<path d="M0 0 C4.95 0 9.9 0 15 0 C15 0.33 15 0.66 15 1 C14.071875 1.268125 13.14375 1.53625 12.1875 1.8125 C9.23759634 2.91148371 7.94384814 3.62418561 6 6 C6 4.68 6 3.36 6 2 C3.03 1.505 3.03 1.505 0 1 C0 0.67 0 0.34 0 0 Z " fill="#0C0C0C" transform="translate(303,245)"/>
<path d="M0 0 C0.66 0 1.32 0 2 0 C1.34 3.63 0.68 7.26 0 11 C-0.99 11 -1.98 11 -3 11 C-2.01 7.37 -1.02 3.74 0 0 Z " fill="#4B4B4B" transform="translate(144,284)"/>
</svg>
